<svg width="154" height="52" viewBox="0 0 154 52" fill="none" xmlns="http://www.w3.org/2000/svg">
<g clip-path="url(#clip0_1_82)">
<path d="M3.03381 16.4069C12.471 14.5249 21.7849 12.0463 31.1968 10.043C43.1096 7.5067 55.0103 5.60752 67.0728 4.0451" stroke="#E35342" stroke-width="2.91247" stroke-miterlimit="10" stroke-linecap="round"/>
<path d="M45.5873 9.40182C50.5718 16.5343 56.7841 27.1173 54.1254 36.232C50.8206 47.5643 32.3588 44.6478 24.5618 41.3601C18.7986 38.93 10.5527 31.8784 18.7318 26.9838C21.5826 25.2778 25.0179 24.8025 28.2348 24.2362" stroke="#E35342" stroke-width="2.91247" stroke-miterlimit="10" stroke-linecap="round"/>
<path d="M102.698 18.5685C98.6149 26.2289 94.5577 34.2604 89.2475 41.1866C86.2895 45.0446 93.9408 32.6363 96.8685 28.755C98.1214 27.0935 99.6232 24.4935 101.413 23.284C102.646 22.4507 103.895 24.3034 104.512 24.9779C108.492 29.3325 111.322 34.3049 113.853 39.5838" stroke="#E35342" stroke-width="2.91247" stroke-miterlimit="10" stroke-linecap="round"/>
<path d="M91.9567 32.5786C96.9817 31.1416 102.058 29.6085 107.244 28.8703" stroke="#E35342" stroke-width="2.91247" stroke-miterlimit="10" stroke-linecap="round"/>
<path d="M125.298 39.288C124.579 39.0685 119.079 24.0685 121.579 21.5685C124.079 19.0685 126.079 18.0684 130.579 18.5685C135.079 19.0685 138.079 38.0685 138.079 38.0685" stroke="#E35342" stroke-width="2.91247" stroke-miterlimit="10" stroke-linecap="round"/>
<path d="M63.6455 29.265C64.587 33.9836 65.661 38.6435 66.9514 43.2752" stroke="#E35342" stroke-width="2.91247" stroke-miterlimit="10" stroke-linecap="round"/>
<path d="M61.5795 28.4418C63.1803 27.8825 73.9747 24.4058 73.9747 25.9692" stroke="#E35342" stroke-width="2.91247" stroke-miterlimit="10" stroke-linecap="round"/>
<path d="M63.2349 34.6227C67.9161 32.8125 73.1565 32.3554 78.1087 31.7375" stroke="#E35342" stroke-width="2.91247" stroke-miterlimit="10" stroke-linecap="round"/>
<path d="M63.2349 40.391C70.4069 41.0726 77.7912 39.5871 84.7184 37.9195" stroke="#E35342" stroke-width="2.91247" stroke-miterlimit="10" stroke-linecap="round"/>
<path d="M138.579 7.62842C139.461 7.80438 139.953 8.81666 140.646 9.27679" stroke="#E35342" stroke-width="2.91247" stroke-miterlimit="10" stroke-linecap="round"/>
<path d="M142.713 5.56845C143.091 6.30163 143.498 6.95086 143.951 7.62842" stroke="#E35342" stroke-width="2.91247" stroke-miterlimit="10" stroke-linecap="round"/>
<path d="M140.646 13.3987C143.245 14.1663 147.731 13.5656 148.496 10.5136" stroke="#E35342" stroke-width="2.91247" stroke-miterlimit="10" stroke-linecap="round"/>
</g>
<defs>
<clipPath id="clip0_1_82">
<rect width="153.714" height="51.575" fill="white"/>
</clipPath>
</defs>
</svg>
